<svg xmlns="http://www.w3.org/2000/svg" width="20" height="20" viewBox="0 0 20 20" fill="none">
    <circle cx="10" cy="10" r="7" stroke="#616161" stroke-width="2"/>
    <mask id="path-2-inside-1_1718_839" fill="white">
    <path d="M12.4575 11.7207C12.9099 12.0375 13.026 12.6737 12.6071 13.0336C12.2257 13.3615 11.7835 13.6164 11.3023 13.7821C10.5036 14.0571 9.63832 14.0722 8.83051 13.8252C8.02271 13.5782 7.31382 13.0819 6.80546 12.4073C6.29709 11.7326 6.01535 10.9144 6.00061 10.0698C5.98587 9.22522 6.23888 8.39765 6.72339 7.70569C7.2079 7.01374 7.89903 6.49294 8.69773 6.21793C9.49642 5.94291 10.3617 5.92781 11.1695 6.17478C11.6562 6.32358 12.107 6.56292 12.4997 6.87722C12.9308 7.22235 12.837 7.86218 12.3959 8.19456C11.9548 8.52693 11.3278 8.40566 10.8247 8.17794C10.747 8.14279 10.6669 8.11251 10.5847 8.08739C10.1808 7.9639 9.74821 7.97146 9.34886 8.10896C8.94952 8.24647 8.60395 8.50687 8.3617 8.85285C8.11944 9.19882 7.99293 9.61261 8.0003 10.0349C8.00768 10.4572 8.14855 10.8663 8.40273 11.2036C8.65691 11.5409 9.01135 11.7891 9.41526 11.9126C9.81916 12.0361 10.2518 12.0285 10.6511 11.891C10.7324 11.8631 10.8114 11.83 10.8878 11.7922C11.3827 11.547 12.0051 11.404 12.4575 11.7207Z"/>
    </mask>
    <path d="M12.4575 11.7207C12.9099 12.0375 13.026 12.6737 12.6071 13.0336C12.2257 13.3615 11.7835 13.6164 11.3023 13.7821C10.5036 14.0571 9.63832 14.0722 8.83051 13.8252C8.02271 13.5782 7.31382 13.0819 6.80546 12.4073C6.29709 11.7326 6.01535 10.9144 6.00061 10.0698C5.98587 9.22522 6.23888 8.39765 6.72339 7.70569C7.2079 7.01374 7.89903 6.49294 8.69773 6.21793C9.49642 5.94291 10.3617 5.92781 11.1695 6.17478C11.6562 6.32358 12.107 6.56292 12.4997 6.87722C12.9308 7.22235 12.837 7.86218 12.3959 8.19456C11.9548 8.52693 11.3278 8.40566 10.8247 8.17794C10.747 8.14279 10.6669 8.11251 10.5847 8.08739C10.1808 7.9639 9.74821 7.97146 9.34886 8.10896C8.94952 8.24647 8.60395 8.50687 8.3617 8.85285C8.11944 9.19882 7.99293 9.61261 8.0003 10.0349C8.00768 10.4572 8.14855 10.8663 8.40273 11.2036C8.65691 11.5409 9.01135 11.7891 9.41526 11.9126C9.81916 12.0361 10.2518 12.0285 10.6511 11.891C10.7324 11.8631 10.8114 11.83 10.8878 11.7922C11.3827 11.547 12.0051 11.404 12.4575 11.7207Z" stroke="#616161" stroke-width="4" mask="url(#path-2-inside-1_1718_839)"/>
    </svg>