<svg xmlns="http://www.w3.org/2000/svg" width="32" height="32" viewBox="0 0 32 32" fill="none">
    <path fill-rule="evenodd" clip-rule="evenodd" d="M12.3312 23.5312C12.0311 23.8311 11.6242 23.9997 11.2 23.9997C10.7757 23.9997 10.3688 23.8311 10.0688 23.5312L3.66878 17.1312C3.36882 16.8311 3.20032 16.4243 3.20032 16C3.20032 15.5757 3.36882 15.1688 3.66878 14.8688L10.0688 8.46879C10.3705 8.17734 10.7747 8.01607 11.1942 8.01971C11.6137 8.02336 12.015 8.19163 12.3117 8.48828C12.6083 8.78494 12.7766 9.18624 12.7803 9.60575C12.7839 10.0253 12.6226 10.4294 12.3312 10.7312L8.66238 14.4H27.2C27.6243 14.4 28.0313 14.5686 28.3313 14.8686C28.6314 15.1687 28.8 15.5756 28.8 16C28.8 16.4243 28.6314 16.8313 28.3313 17.1314C28.0313 17.4314 27.6243 17.6 27.2 17.6H8.66238L12.3312 21.2688C12.6311 21.5688 12.7996 21.9757 12.7996 22.4C12.7996 22.8243 12.6311 23.2311 12.3312 23.5312Z" fill="#424242"/>
  </svg>