<svg xmlns="http://www.w3.org/2000/svg" width="32" height="32" viewBox="0 0 32 32" fill="none">
    <path fill-rule="evenodd" clip-rule="evenodd" d="M19.6688 8.46879C19.9688 8.16884 20.3757 8.00034 20.8 8.00034C21.2243 8.00034 21.6312 8.16884 21.9312 8.46879L28.3312 14.8688C28.6312 15.1688 28.7997 15.5757 28.7997 16C28.7997 16.4243 28.6312 16.8311 28.3312 17.1312L21.9312 23.5312C21.6294 23.8226 21.2253 23.9839 20.8058 23.9803C20.3862 23.9766 19.9849 23.8084 19.6883 23.5117C19.3916 23.2151 19.2234 22.8138 19.2197 22.3942C19.2161 21.9747 19.3773 21.5706 19.6688 21.2688L23.3376 17.6H4.8C4.37565 17.6 3.96868 17.4314 3.66863 17.1314C3.36857 16.8313 3.2 16.4243 3.2 16C3.2 15.5756 3.36857 15.1687 3.66863 14.8686C3.96868 14.5686 4.37565 14.4 4.8 14.4H23.3376L19.6688 10.7312C19.3688 10.4311 19.2003 10.0243 19.2003 9.59999C19.2003 9.17573 19.3688 8.76884 19.6688 8.46879Z" fill="#424242"/>
    </svg>