<svg xmlns="http://www.w3.org/2000/svg" width="24" height="24" viewBox="0 0 24 24" fill="none">
<path fill-rule="evenodd" clip-rule="evenodd" d="M16.7758 9.52468C16.8678 9.32368 17.1328 9.32368 17.2238 9.52468C17.6188 10.3887 18.4918 10.9927 19.4998 10.9927V10.9927C20.8748 10.9927 21.9998 9.86768 21.9998 8.49268V8.49268V8.49268C21.9998 7.50668 21.4408 5.87568 20.9998 4.99268C20.9998 4.99268 19.9998 2.99268 18.7638 2.99268H5.2358C3.9998 2.99268 2.9998 4.99268 2.9998 4.99268C2.5588 5.87568 1.9998 7.50668 1.9998 8.49268V8.49268C1.9998 9.86768 3.1248 10.9927 4.4998 10.9927V10.9927C5.5078 10.9927 6.3808 10.3887 6.7758 9.52468C6.8678 9.32368 7.1328 9.32368 7.2238 9.52468C7.6188 10.3887 8.4918 10.9927 9.4998 10.9927V10.9927C10.5078 10.9927 11.3808 10.3887 11.7758 9.52468C11.8678 9.32368 12.1328 9.32368 12.2238 9.52468C12.6188 10.3887 13.4918 10.9927 14.4998 10.9927V10.9927C15.5078 10.9927 16.3808 10.3887 16.7758 9.52468Z" stroke="#26AC34" stroke-width="2" stroke-linecap="round" stroke-linejoin="round"/>
<path d="M4 10.9932V16.9932C4 19.9932 5 20.9932 8 20.9932H16C19 20.9932 20 19.9932 20 16.9932V10.9932" stroke="#26AC34" stroke-width="2" stroke-linecap="round" stroke-linejoin="round"/>
<path fill-rule="evenodd" clip-rule="evenodd" d="M15 20.9932H9V17.9932C9 16.8882 9.895 15.9932 11 15.9932H13C14.105 15.9932 15 16.8882 15 17.9932V20.9932Z" stroke="#26AC34" stroke-width="2" stroke-linecap="round" stroke-linejoin="round"/>
<path d="M7 8.99316L8 2.99316" stroke="#26AC34" stroke-width="2" stroke-linecap="round" stroke-linejoin="round"/>
<path d="M17 8.99316L16 2.99316" stroke="#26AC34" stroke-width="2" stroke-linecap="round" stroke-linejoin="round"/>
<path d="M12 8.99316V2.99316" stroke="#26AC34" stroke-width="2" stroke-linecap="round" stroke-linejoin="round"/>
</svg>